<svg xmlns="http://www.w3.org/2000/svg" viewBox="0 0 1600 1000"><defs><linearGradient id="g" x1="0" y1="0" x2="1" y2="1"><stop stop-color="#042b45"/><stop offset=".55" stop-color="#075b77"/><stop offset="1" stop-color="#03101d"/></linearGradient></defs><rect width="1600" height="1000" fill="url(#g)"/><g opacity=".55"><circle cx="260" cy="220" r="250" fill="#35c7ff"/><circle cx="1250" cy="240" r="300" fill="#8a6cff"/><circle cx="850" cy="820" r="330" fill="#ffad55"/></g><g opacity=".25" fill="none" stroke="#fff"><path d="M0 720 C360 560 520 930 900 650 S1320 440 1600 580"/><path d="M80 180 C420 260 560 80 850 230 S1260 480 1530 210"/></g><g opacity=".35"><circle cx="0" cy="0" r="1" fill="#fff"/><circle cx="137" cy="239" r="2" fill="#fff"/><circle cx="274" cy="478" r="3" fill="#fff"/><circle cx="411" cy="717" r="1" fill="#fff"/><circle cx="548" cy="956" r="2" fill="#fff"/><circle cx="685" cy="195" r="3" fill="#fff"/><circle cx="822" cy="434" r="1" fill="#fff"/><circle cx="959" cy="673" r="2" fill="#fff"/><circle cx="1096" cy="912" r="3" fill="#fff"/><circle cx="1233" cy="151" r="1" fill="#fff"/><circle cx="1370" cy="390" r="2" fill="#fff"/><circle cx="1507" cy="629" r="3" fill="#fff"/><circle cx="44" cy="868" r="1" fill="#fff"/><circle cx="181" cy="107" r="2" fill="#fff"/><circle cx="318" cy="346" r="3" fill="#fff"/><circle cx="455" cy="585" r="1" fill="#fff"/><circle cx="592" cy="824" r="2" fill="#fff"/><circle cx="729" cy="63" r="3" fill="#fff"/><circle cx="866" cy="302" r="1" fill="#fff"/><circle cx="1003" cy="541" r="2" fill="#fff"/><circle cx="1140" cy="780" r="3" fill="#fff"/><circle cx="1277" cy="19" r="1" fill="#fff"/><circle cx="1414" cy="258" r="2" fill="#fff"/><circle cx="1551" cy="497" r="3" fill="#fff"/><circle cx="88" cy="736" r="1" fill="#fff"/><circle cx="225" cy="975" r="2" fill="#fff"/><circle cx="362" cy="214" r="3" fill="#fff"/><circle cx="499" cy="453" r="1" fill="#fff"/><circle cx="636" cy="692" r="2" fill="#fff"/><circle cx="773" cy="931" r="3" fill="#fff"/><circle cx="910" cy="170" r="1" fill="#fff"/><circle cx="1047" cy="409" r="2" fill="#fff"/><circle cx="1184" cy="648" r="3" fill="#fff"/><circle cx="1321" cy="887" r="1" fill="#fff"/><circle cx="1458" cy="126" r="2" fill="#fff"/><circle cx="1595" cy="365" r="3" fill="#fff"/><circle cx="132" cy="604" r="1" fill="#fff"/><circle cx="269" cy="843" r="2" fill="#fff"/><circle cx="406" cy="82" r="3" fill="#fff"/><circle cx="543" cy="321" r="1" fill="#fff"/><circle cx="680" cy="560" r="2" fill="#fff"/><circle cx="817" cy="799" r="3" fill="#fff"/><circle cx="954" cy="38" r="1" fill="#fff"/><circle cx="1091" cy="277" r="2" fill="#fff"/><circle cx="1228" cy="516" r="3" fill="#fff"/></g></svg>